<svg xmlns="http://www.w3.org/2000/svg" viewBox="0 0 206.25372 100.308">
  <g transform="matrix(1.3333333,0,0,-1.3333333,-285.98973,983.47504)">
    <path d="m 220.0314,662.3753 h 143.612 c 3.0464,0 5.5392,2.7085 5.5392,6.0188 v 63.1934 c 0,3.3103 -2.4928,6.0188 -5.5392,6.0188 h -143.612 c -3.0466,0 -5.5391,-2.7088 -5.5391,-6.0188 v -63.1934 c 0,-3.31 2.4922,-6.0188 5.5391,-6.0188" style="fill:#f5821f;fill-rule:evenodd;stroke:none"/>
    <path d="m 308.2606,719.2403 c 4.7387,0 7.2856,-3.909 5.7459,-8.6476 -1.5404,-4.7381 -6.6935,-8.5879 -11.4319,-8.5879 -4.7384,0 -7.3448,3.8498 -5.7452,8.5879 1.5397,4.7386 6.6931,8.6476 11.4312,8.6476" style="fill:#ffffff;fill-rule:evenodd;stroke:none"/>
    <path d="m 329.4655,719.2403 c 4.7976,0 7.3448,-3.909 5.8045,-8.6476 -1.5398,-4.7381 -6.6929,-8.5879 -11.4313,-8.5879 -4.7387,0 -7.3448,3.8498 -5.8048,8.5879 1.5993,4.7386 6.6932,8.6476 11.4316,8.6476" style="fill:#ffffff;fill-rule:evenodd;stroke:none"/>
    <path d="m 350.4331,719.2403 c 4.7386,0 7.2856,-3.909 5.7455,-8.6476 -1.54,-4.7381 -6.6929,-8.5879 -11.4315,-8.5879 -4.7382,0 -7.3449,3.8498 -5.7453,8.5879 1.5398,4.7386 6.6932,8.6476 11.4313,8.6476" style="fill:#ffffff;fill-rule:evenodd;stroke:none"/>
    <path d="m 322.4764,697.9175 c 4.7384,0 7.3443,-3.8494 5.8045,-8.5878 -1.5401,-4.7387 -6.6929,-8.5884 -11.4316,-8.5884 -4.7384,0 -7.3445,3.8497 -5.8048,8.5884 1.5401,4.7384 6.6932,8.5878 11.4319,8.5878" style="fill:#ffffff;fill-rule:evenodd;stroke:none"/>
    <path d="m 255.8415,694.7785 c -3.1986,-8.1145 -11.0764,-14.0372 -19.3096,-14.0372 -4.2642,0 -7.0481,1.3618 -8.5292,3.9685 -1.836,3.494 -0.6511,7.2258 1.0072,11.5495 0,0 0,0.0592 0.0592,0.1185 l 0.4737,1.2441 6.338,15.9324 0.7106,1.9548 c 0.4737,1.0658 1.1251,1.8363 2.073,2.4877 0.7702,0.5329 1.6586,0.8291 2.5469,0.8291 0.8884,0 1.5993,-0.2962 1.9545,-0.8881 0.4147,-0.5924 0.4147,-1.3629 0.0593,-2.4287 l -0.7699,-1.8956 c 0,0 0,0 0,-0.0592 l -2.7247,-6.7518 c 2.5469,1.2435 5.2124,2.0137 7.937,2.0137 7.996,0 11.3131,-6.1597 8.174,-14.0377 z m -6.5747,0 c 1.7175,4.265 0.1182,7.463 -4.2054,7.463 -4.3237,0 -8.4107,-3.3171 -10.0696,-7.463 -2.0137,-5.1531 0.5928,-7.5218 4.2055,-7.4625 3.5538,0 8.1743,2.6059 10.0695,7.4625" style="fill:#ffffff;fill-rule:evenodd;stroke:none"/>
    <path d="m 279.2971,708.8162 c -2.6654,0 -5.3309,-0.7702 -7.8188,-2.0137 l 0.7109,1.8955 2.9021,7.2258 c 0.4147,1.0068 0.4147,1.8363 -0.0592,2.4287 -0.3552,0.5919 -1.0659,0.8878 -1.9542,0.8878 -0.8887,0 -1.7178,-0.2959 -2.5473,-0.8286 -0.9479,-0.6516 -1.599,-1.4811 -2.0137,-2.4879 l -12.6161,-31.9252 c -0.4148,-1.0072 -0.3555,-1.8355 0.0592,-2.4285 0.4147,-0.5329 1.0658,-0.8288 1.9548,-0.8288 0.8291,0 1.7767,0.2959 2.6059,0.8288 0.8886,0.593 1.54,1.4213 1.9544,2.4285 l 4.6202,11.7275 c 1.8363,3.7315 5.6861,6.5154 9.5956,6.5154 4.3829,0 5.9233,-3.198 4.2644,-7.463 v 0 l -4.1462,-10.7207 c -0.4144,-1.0664 -0.3555,-1.8947 0.0592,-2.4278 0.4148,-0.5928 1.0664,-0.8887 1.9548,-0.8887 0.8884,0 1.7768,0.2959 2.6654,0.8887 0.8884,0.5331 1.5401,1.3614 1.8953,2.4278 l 4.1465,10.7207 v 0 c 3.0798,7.878 -0.178,14.0377 -8.2332,14.0377" style="fill:#ffffff;fill-rule:evenodd;stroke:none"/>
  </g>
</svg>
